<?xml version="1.0" encoding="utf-8"?>
<!-- Generator: Adobe Illustrator 22.1.0, SVG Export Plug-In . SVG Version: 6.00 Build 0)  -->
<svg version="1.1" id="圖層_1" xmlns="http://www.w3.org/2000/svg" xmlns:xlink="http://www.w3.org/1999/xlink" x="0px" y="0px"
	 viewBox="0 0 100 100" style="enable-background:new 0 0 100 100;" xml:space="preserve">
<style type="text/css">
	.st0{fill:none;stroke:#000000;stroke-width:7;stroke-miterlimit:10;}
	.st1{fill:none;stroke:#000000;stroke-width:5;stroke-miterlimit:10;}
</style>
<g id="Layer_2">
	<g id="Layer_2-2">
		<path d="M50.2,92.8H19.2c-3.8,0-4.9-2.8-6-5.8v-0.1L0.9,49.4c-0.8-3-0.5-5.7,0.9-7.6c0.9-1.2,2.6-2.6,5.8-2.6h42.6v3.3H7.6
			c-1.5,0-2.5,0.4-3.2,1.2c-0.8,1-0.9,2.7-0.4,4.6l12.1,37.3c1.3,3.4,1.7,3.6,2.9,3.6h31.1V92.8z"/>
		<path d="M81.3,92.8H50.2v-3.3h31.1c1.2,0,1.6-0.1,2.9-3.6l12.1-37.3c0.5-2,0.4-3.6-0.4-4.6c-0.6-0.8-1.7-1.2-3.2-1.2H50.2v-3.3
			h42.6c3.2,0,4.9,1.4,5.8,2.6c1.4,1.9,1.8,4.6,0.9,7.6v0.1L87.3,87C86.2,90,85.1,92.8,81.3,92.8z"/>
		<path d="M68.3,41.4c-6.1-22.2-11.2-30.8-18.4-30.8s-12.4,8.6-18.4,30.8l-3.2-0.9c3.3-12,6.1-19.6,9.2-24.7
			C40.9,10,45,7.2,49.9,7.2c10.5,0,16,12.7,21.7,33.3L68.3,41.4z"/>
		<path class="st0" d="M79.3,41"/>
		<path class="st1" d="M20.5,41"/>
	</g>
</g>
</svg>
