<?xml version="1.0" encoding="utf-8"?>
<!-- Generator: Adobe Illustrator 22.1.0, SVG Export Plug-In . SVG Version: 6.00 Build 0)  -->
<svg version="1.1" id="圖層_1" xmlns="http://www.w3.org/2000/svg" xmlns:xlink="http://www.w3.org/1999/xlink" x="0px" y="0px"
	 viewBox="0 0 100 100" style="enable-background:new 0 0 100 100;" xml:space="preserve">
<g id="Layer_2">
	<g id="Layer_2-2">
		<path d="M83.8,99.9H16.2c-5.1-0.1-9.2-4.3-9.1-9.4v-81c-0.1-5.1,4-9.3,9.1-9.4h52.2c2.3,0,4.4,1,5.9,2.7l16.5,18.8
			c1.3,1.5,2.1,3.5,2.1,5.6v63.4C92.9,95.5,88.9,99.7,83.8,99.9z M16.2,3.9C13.3,4,11,6.5,11.1,9.4v81c-0.1,2.9,2.2,5.4,5.1,5.5
			h67.6c2.9-0.1,5.2-2.6,5.1-5.5V27.1c0-1.1-0.4-2.2-1.1-3L71.3,5.3c-0.7-0.9-1.8-1.4-2.9-1.4H16.2z"/>
		<path d="M90.5,28.3H77.6c-5.6,0-10.1-4.5-10.1-10.1V2.8c0-1.1,0.9-2,2-2c1.1,0,2,0.9,2,2v15.4c0,3.4,2.8,6.2,6.2,6.2h12.9
			c1.1,0,2,0.9,2,2C92.5,27.4,91.6,28.3,90.5,28.3z"/>
		<path d="M45.3,26.9H31.1c-1.1,0-2-0.9-2-2c0-1.1,0.9-2,2-2h14.2c1.1,0,2,0.9,2,2C47.2,26,46.4,26.9,45.3,26.9z"/>
		<circle cx="20.5" cy="25" r="3.1"/>
		<path d="M72.8,42.3H31.1c-1.1,0-2-0.9-2-2s0.9-2,2-2h41.7c1.1,0,2,0.9,2,2S73.9,42.3,72.8,42.3z"/>
		<circle cx="20.5" cy="40.3" r="3.1"/>
		<path d="M59.4,57.6H31.1c-1.1,0-2-0.9-2-2c0-1.1,0.9-2,2-2h28.3c1.1,0,2,0.9,2,2C61.4,56.7,60.5,57.6,59.4,57.6z"/>
		<circle cx="20.5" cy="55.6" r="3.1"/>
	</g>
</g>
</svg>
